# xmcd CD database file
#
# Track frame offsets:
#	150
#	18483
#	39323
#	61623
#	86343
#	107214
#	126513
#	150494
#	172577
#
# Disc length: 2580 seconds
#
# Revision: 2
# Processed by: cddbd v1.5.1PL2 Copyright (c) Steve Scherf et al.
# Submitted via: CDex 1.51
#
DISCID=5f0a1209
DTITLE=Chiqui Pérez - El Color Del Aire
DYEAR=2002
DGENRE=Jazz
TTITLE0=A qué cantar
TTITLE1=Eu sei que vou te amar
TTITLE2=Ojalá
TTITLE3=Aires de lima
TTITLE4=Ausencia
TTITLE5=Todo giraba
TTITLE6=Round midnight
TTITLE7=Recordándote
TTITLE8=The end of a love affair
EXTD=YEAR: 2002
EXTT0=
EXTT1=
EXTT2=
EXTT3=
EXTT4=
EXTT5=
EXTT6=
EXTT7=
EXTT8=
PLAYORDER=
